<?xml version="1.0" encoding="UTF-8" standalone="no"?>
<!DOCTYPE svg PUBLIC "-//W3C//DTD SVG 1.1//EN" "http://www.w3.org/Graphics/SVG/1.1/DTD/svg11.dtd">
<svg width="100%" height="100%" viewBox="0 0 690 690" version="1.1" xmlns="http://www.w3.org/2000/svg" xmlns:xlink="http://www.w3.org/1999/xlink" xml:space="preserve" style="fill-rule:evenodd;clip-rule:evenodd;stroke-linejoin:round;stroke-miterlimit:1.41421;">
    <g transform="matrix(8.33333,0,0,8.33333,-2545.51,-17256.1)">
        <path d="M339.872,2097.67L353.779,2097.67C355.768,2097.67 357.387,2096.05 357.387,2094.06L357.387,2093.93L362.471,2093.93L362.471,2132.17L331.18,2132.17L331.179,2093.93L336.263,2093.93L336.263,2094.06C336.263,2096.05 337.882,2097.67 339.872,2097.67M354.448,2094.06C354.448,2094.45 354.167,2094.73 353.779,2094.73L339.872,2094.73C339.484,2094.73 339.202,2094.45 339.202,2094.06L339.202,2090.85C339.202,2090.46 339.484,2090.18 339.872,2090.18L353.779,2090.18C354.167,2090.18 354.448,2090.46 354.448,2090.85L354.448,2094.06ZM365.41,2092.46C365.41,2091.65 364.751,2090.99 363.94,2090.99L357.387,2090.99L357.387,2090.85C357.387,2088.86 355.768,2087.24 353.778,2087.24L339.872,2087.24C337.882,2087.24 336.263,2088.86 336.263,2090.85L336.263,2090.99L329.729,2090.99C329.683,2090.99 329.637,2090.99 329.572,2090.99C328.809,2091.06 328.237,2091.69 328.24,2092.46L328.24,2133.64C328.24,2134.45 328.9,2135.11 329.71,2135.11L363.94,2135.11C364.751,2135.11 365.411,2134.45 365.411,2133.64L365.41,2092.46Z" style="fill:rgb(105,104,117);fill-rule:nonzero;"/>
    </g>
    <g transform="matrix(8.33333,0,0,8.33333,-2545.51,-17256.1)">
        <path d="M346.825,2076.33C327.104,2076.33 311.059,2092.37 311.059,2112.09C311.059,2131.82 327.104,2147.86 346.825,2147.86C366.546,2147.86 382.591,2131.82 382.591,2112.09C382.591,2092.37 366.546,2076.33 346.825,2076.33M346.825,2153.46C324.016,2153.46 305.459,2134.9 305.459,2112.09C305.459,2089.28 324.016,2070.73 346.825,2070.73C369.634,2070.73 388.191,2089.28 388.191,2112.09C388.191,2134.9 369.634,2153.46 346.825,2153.46" style="fill:rgb(105,104,117);fill-rule:nonzero;"/>
    </g>
</svg>
