<?xml version="1.0" encoding="UTF-8" standalone="no"?>
<!DOCTYPE svg PUBLIC "-//W3C//DTD SVG 1.1//EN" "http://www.w3.org/Graphics/SVG/1.1/DTD/svg11.dtd">
<svg width="100%" height="100%" viewBox="0 0 690 690" version="1.1" xmlns="http://www.w3.org/2000/svg" xmlns:xlink="http://www.w3.org/1999/xlink" xml:space="preserve" style="fill-rule:evenodd;clip-rule:evenodd;stroke-linejoin:round;stroke-miterlimit:1.41421;">
    <g transform="matrix(8.33333,0,0,8.33333,-2545.51,-7502.41)">
        <path d="M365.557,921.985C355.274,912.469 339.159,912.469 328.876,921.985C323.428,927.05 320.358,933.956 320.205,941.323C320.051,948.69 322.814,955.673 328.185,960.815C335.629,968.258 346.756,970.714 356.655,967.03C357.653,966.647 358.19,965.496 357.806,964.498C357.423,963.501 356.272,962.963 355.274,963.347C346.833,966.493 337.241,964.421 330.871,958.052C326.42,953.525 323.965,947.616 324.118,941.246C324.272,934.954 326.881,929.045 331.562,924.748C340.387,916.613 354.123,916.613 362.948,924.748C371.926,933.112 372.924,947.002 365.097,956.441C365.097,956.517 365.02,956.517 364.943,956.517C364.866,956.517 364.79,956.517 364.713,956.441L361.106,952.834C361.26,952.757 361.336,952.604 361.49,952.45C362.564,951.376 362.564,949.995 361.49,948.92C360.185,947.616 358.881,946.311 357.576,945.006C356.579,943.932 355.197,943.932 354.123,945.006C353.279,945.851 352.511,946.618 351.667,947.462C351.437,947.692 351.284,947.769 350.977,947.616C350.516,947.309 349.902,947.078 349.442,946.771C347.14,945.314 345.145,943.395 343.38,941.246C342.536,940.172 341.768,939.021 341.231,937.716C341.154,937.486 341.154,937.333 341.384,937.102C342.305,936.335 342.996,935.568 343.84,934.724C344.991,933.649 344.991,932.345 343.84,931.194C343.149,930.503 342.536,929.889 341.922,929.275C341.231,928.585 340.617,927.894 339.926,927.28C338.929,926.282 337.548,926.282 336.473,927.28C335.629,928.124 334.862,928.891 334.018,929.736C333.25,930.503 332.867,931.424 332.79,932.422C332.636,934.033 333.02,935.721 333.634,937.256C334.785,940.556 336.627,943.318 338.852,946.004C341.845,949.611 345.452,952.45 349.595,954.445C351.514,955.366 353.432,956.057 355.504,956.21C356.579,956.287 357.423,956.057 358.267,955.596C358.344,955.596 358.344,955.673 358.344,955.673L361.95,959.28C362.794,960.124 363.946,960.584 365.097,960.508C366.094,960.431 367.092,959.97 367.782,959.28C367.859,959.203 367.936,959.05 368.013,958.973C377.144,947.999 375.993,931.731 365.557,921.985" style="fill:rgb(105,104,117);fill-rule:nonzero;"/>
    </g>
    <g transform="matrix(8.33333,0,0,8.33333,-2545.51,-7502.41)">
        <path d="M346.825,905.886C327.104,905.886 311.059,921.931 311.059,941.652C311.059,961.374 327.104,977.419 346.825,977.419C366.546,977.419 382.591,961.374 382.591,941.652C382.591,921.931 366.546,905.886 346.825,905.886M346.825,983.019C324.016,983.019 305.459,964.462 305.459,941.652C305.459,918.843 324.016,900.286 346.825,900.286C369.634,900.286 388.191,918.843 388.191,941.652C388.191,964.462 369.634,983.019 346.825,983.019" style="fill:rgb(105,104,117);fill-rule:nonzero;"/>
    </g>
</svg>
