<?xml version="1.0" encoding="UTF-8" standalone="no"?>
<!DOCTYPE svg PUBLIC "-//W3C//DTD SVG 1.1//EN" "http://www.w3.org/Graphics/SVG/1.1/DTD/svg11.dtd">
<svg width="100%" height="100%" viewBox="0 0 690 690" version="1.1" xmlns="http://www.w3.org/2000/svg" xmlns:xlink="http://www.w3.org/1999/xlink" xml:space="preserve" style="fill-rule:evenodd;clip-rule:evenodd;stroke-linejoin:round;stroke-miterlimit:1.41421;">
    <g transform="matrix(8.33333,0,0,8.33333,-2545.51,-19273)">
        <path d="M335.881,2365.32C334.972,2365.36 334.188,2366.23 334.235,2367.14C334.283,2368.05 335.153,2368.84 336.062,2368.79L354.582,2368.79C355.499,2368.8 356.336,2367.97 356.336,2367.05C356.336,2366.13 355.499,2365.3 354.582,2365.32L336.062,2365.32C336.002,2365.31 335.941,2365.31 335.881,2365.32M364.185,2363.07L367.965,2364.95L360.966,2378.23L357.819,2378.86L357.511,2376.04L364.185,2363.07ZM366.916,2357.77L370.732,2359.69L369.575,2361.9L365.777,2360L366.916,2357.77ZM335.881,2356.63C334.922,2356.68 334.185,2357.5 334.235,2358.46C334.285,2359.42 335.103,2360.16 336.062,2360.11L355.739,2360.11C356.698,2360.12 357.486,2359.35 357.5,2358.39C357.513,2357.44 356.747,2356.65 355.788,2356.63C355.772,2356.63 355.755,2356.63 355.739,2356.63L336.062,2356.63C336.002,2356.63 335.941,2356.63 335.881,2356.63M335.881,2347.95C334.922,2348 334.185,2348.82 334.235,2349.78C334.285,2350.74 335.103,2351.47 336.062,2351.43L355.739,2351.43C356.698,2351.44 357.486,2350.67 357.5,2349.71C357.513,2348.76 356.747,2347.97 355.788,2347.95C355.772,2347.95 355.755,2347.95 355.739,2347.95L336.062,2347.95C336.002,2347.95 335.941,2347.95 335.881,2347.95M335.881,2339.27C334.922,2339.32 334.185,2340.14 334.235,2341.1C334.285,2342.06 335.103,2342.79 336.062,2342.74L355.739,2342.74C356.698,2342.76 357.486,2341.99 357.5,2341.03C357.513,2340.07 356.747,2339.28 355.788,2339.27C355.772,2339.27 355.755,2339.27 355.739,2339.27L336.062,2339.27C336.002,2339.27 335.941,2339.27 335.881,2339.27M332.011,2334.06L359.79,2334.06L359.79,2364.07L354.979,2373.42L332.011,2373.42L332.011,2334.06ZM330.094,2330.59C329.246,2330.68 328.534,2331.47 328.538,2332.33L328.538,2375.15C328.538,2376.06 329.365,2376.89 330.274,2376.89L354.129,2376.89L354.6,2381.12C354.702,2382.08 355.557,2382.77 356.511,2382.66C356.561,2382.66 356.612,2382.65 356.661,2382.64L362.449,2381.48C362.963,2381.38 363.402,2381.05 363.642,2380.58L374.639,2359.74C375.081,2358.89 374.749,2357.85 373.898,2357.4C373.892,2357.4 373.885,2357.4 373.879,2357.39L366.934,2353.92C366.622,2353.76 366.269,2353.7 365.921,2353.74C365.36,2353.82 364.873,2354.17 364.619,2354.68L363.263,2357.32L363.263,2332.33C363.263,2331.42 362.435,2330.59 361.526,2330.59L330.274,2330.59C330.214,2330.59 330.154,2330.59 330.094,2330.59" style="fill:rgb(105,104,117);fill-rule:nonzero;"/>
    </g>
    <g transform="matrix(8.33333,0,0,8.33333,-2545.51,-19273)">
        <path d="M346.825,2318.35C327.104,2318.35 311.059,2334.4 311.059,2354.12C311.059,2373.84 327.104,2389.89 346.825,2389.89C366.546,2389.89 382.591,2373.84 382.591,2354.12C382.591,2334.4 366.546,2318.35 346.825,2318.35M346.825,2395.49C324.016,2395.49 305.459,2376.93 305.459,2354.12C305.459,2331.31 324.016,2312.75 346.825,2312.75C369.634,2312.75 388.191,2331.31 388.191,2354.12C388.191,2376.93 369.634,2395.49 346.825,2395.49" style="fill:rgb(105,104,117);fill-rule:nonzero;"/>
    </g>
</svg>
