<?xml version="1.0" encoding="UTF-8" standalone="no"?>
<!DOCTYPE svg PUBLIC "-//W3C//DTD SVG 1.1//EN" "http://www.w3.org/Graphics/SVG/1.1/DTD/svg11.dtd">
<svg width="100%" height="100%" viewBox="0 0 690 690" version="1.1" xmlns="http://www.w3.org/2000/svg" xmlns:xlink="http://www.w3.org/1999/xlink" xml:space="preserve" style="fill-rule:evenodd;clip-rule:evenodd;stroke-linejoin:round;stroke-miterlimit:1.41421;">
    <g transform="matrix(8.33333,0,0,8.33333,-2545.51,-15205.1)">
        <path d="M369.769,1881.34L348.101,1890.28L348.101,1862.11L369.769,1853.18L369.769,1881.34ZM324.158,1853.18L331.037,1855.99L330.983,1869.16C330.983,1869.59 331.254,1870.02 331.687,1870.18L336.942,1872.41C337.104,1872.46 337.213,1872.51 337.375,1872.51C337.592,1872.51 337.809,1872.46 337.971,1872.35C338.296,1872.13 338.459,1871.81 338.513,1871.43L338.784,1859.24L345.826,1862.17L345.826,1890.28L324.158,1881.34L324.158,1853.18ZM346.368,1844.02L351.08,1845.7L331.796,1853.88L326.162,1851.55L346.368,1844.02ZM348.101,1859.68L346.963,1860.11L346.638,1860L340.192,1857.35L359.91,1848.84L367.656,1851.61L348.101,1859.68ZM333.367,1857.02L333.8,1857.18L336.509,1858.32L336.292,1869.64L333.313,1868.45L333.367,1857.02ZM356.768,1847.7L337.267,1856.1L334.721,1855.07L354.222,1846.78L356.768,1847.7ZM372.044,1851.5L371.99,1851.23L371.936,1851.12L371.773,1850.85L371.611,1850.68L371.502,1850.63L371.232,1850.52L346.747,1841.69C346.476,1841.58 346.205,1841.58 345.988,1841.69L322.641,1850.41L322.316,1850.58L322.099,1850.79C322.099,1850.79 321.937,1851.12 321.937,1851.17C321.937,1851.23 321.883,1851.33 321.883,1851.44L321.883,1882.1C321.883,1882.59 322.153,1882.97 322.587,1883.13L346.638,1892.99L346.909,1893.05L347.234,1892.99L371.34,1883.13C371.773,1882.97 372.044,1882.54 372.044,1882.1L372.044,1851.5C372.044,1851.5 371.99,1851.5 372.044,1851.5C371.99,1851.5 372.044,1851.5 372.044,1851.5" style="fill:rgb(105,104,117);fill-rule:nonzero;"/>
    </g>
    <g transform="matrix(8.33333,0,0,8.33333,-2545.51,-15205.1)">
        <path d="M346.825,1830.2C327.104,1830.2 311.059,1846.25 311.059,1865.97C311.059,1885.69 327.104,1901.74 346.825,1901.74C366.546,1901.74 382.591,1885.69 382.591,1865.97C382.591,1846.25 366.546,1830.2 346.825,1830.2M346.825,1907.34C324.016,1907.34 305.459,1888.78 305.459,1865.97C305.459,1843.16 324.016,1824.61 346.825,1824.61C369.634,1824.61 388.191,1843.16 388.191,1865.97C388.191,1888.78 369.634,1907.34 346.825,1907.34" style="fill:rgb(105,104,117);fill-rule:nonzero;"/>
    </g>
</svg>
