<?xml version="1.0" encoding="UTF-8" standalone="no"?>
<!DOCTYPE svg PUBLIC "-//W3C//DTD SVG 1.1//EN" "http://www.w3.org/Graphics/SVG/1.1/DTD/svg11.dtd">
<svg width="100%" height="100%" viewBox="0 0 690 690" version="1.1" xmlns="http://www.w3.org/2000/svg" xmlns:xlink="http://www.w3.org/1999/xlink" xml:space="preserve" style="fill-rule:evenodd;clip-rule:evenodd;stroke-linejoin:round;stroke-miterlimit:1.41421;">
    <g transform="matrix(8.33333,0,0,8.33333,-2545.51,-5455.07)">
        <path d="M346.825,660.206C327.104,660.206 311.059,676.251 311.059,695.972C311.059,715.694 327.104,731.739 346.825,731.739C366.546,731.739 382.591,715.694 382.591,695.972C382.591,676.251 366.546,660.206 346.825,660.206M346.825,737.339C324.016,737.339 305.459,718.782 305.459,695.972C305.459,673.163 324.016,654.606 346.825,654.606C369.634,654.606 388.191,673.163 388.191,695.972C388.191,718.782 369.634,737.339 346.825,737.339" style="fill:rgb(105,104,117);fill-rule:nonzero;"/>
    </g>
    <g transform="matrix(8.33333,0,0,8.33333,-2545.51,-5455.07)">
        <path d="M361.703,678.372L361.672,678.394C361.682,678.388 361.693,678.379 361.703,678.372M329.378,680.943L329.4,680.974C329.394,680.964 329.385,680.953 329.378,680.943M329.36,710.09L329.361,710.09L329.36,710.09ZM345.134,718.392L348.669,718.392L349.61,712.743L351.062,712.38C352.515,712.017 353.993,711.387 355.455,710.509L356.744,709.735L361.425,713.108L364.118,710.415L360.757,705.561L361.514,704.299C362.24,703.088 362.787,701.691 363.233,699.904L363.596,698.453L369.245,697.512L369.245,693.977L363.63,693.041L363.245,691.632C362.868,690.25 362.218,688.767 361.363,687.341L360.591,686.054L363.961,681.372L361.273,678.682L356.592,682.055L355.305,681.283C354.096,680.557 352.697,680.011 350.909,679.564L349.457,679.202L348.516,673.552L344.983,673.552L344.046,679.168L342.638,679.552C340.907,680.024 339.503,680.59 338.346,681.283L337.059,682.055L332.378,678.684L329.688,681.373L333.062,686.055L332.289,687.342C331.41,688.804 330.78,690.283 330.417,691.737L330.055,693.188L324.405,694.129L324.405,697.663L330.021,698.6L330.405,700.008C330.893,701.8 331.463,703.154 332.257,704.399L333.087,705.702L329.689,710.42L332.378,713.108L337.059,709.735L338.348,710.509C339.81,711.387 341.288,712.017 342.742,712.38L344.193,712.743L345.134,718.392ZM349.181,722.952L344.621,722.952C342.71,722.952 341.024,721.48 340.701,719.526L340.175,716.373C339.222,716.051 338.272,715.645 337.331,715.161L334.546,717.156C332.838,718.181 330.8,717.982 329.48,716.658L326.136,713.316C324.815,711.996 324.616,709.959 325.645,708.248L325.747,708.092L327.625,705.486C327.168,704.604 326.777,703.669 326.431,702.624L323.27,702.097C321.223,701.757 319.845,700.18 319.845,698.176L319.845,693.617C319.845,691.708 321.316,690.023 323.268,689.695L326.424,689.169C326.747,688.216 327.153,687.266 327.637,686.325L325.747,683.699C324.53,682.185 324.665,679.948 326.137,678.476L329.482,675.132C330.8,673.812 332.835,673.609 334.546,674.637L334.705,674.741L337.35,676.646C338.168,676.249 339.054,675.895 340.022,675.577L340.549,672.417C340.889,670.37 342.466,668.992 344.469,668.992L349.029,668.992C350.94,668.992 352.626,670.465 352.95,672.418L353.471,675.547C354.495,675.865 355.433,676.23 356.3,676.646L358.946,674.741C360.458,673.53 362.693,673.656 364.169,675.13L367.513,678.476C368.834,679.797 369.033,681.832 368.009,683.541L367.905,683.699L366.015,686.324C366.477,687.216 366.873,688.12 367.195,689.012L370.381,689.543C372.428,689.883 373.805,691.458 373.805,693.464L373.805,698.024C373.805,699.933 372.334,701.619 370.382,701.945L367.25,702.466C366.929,703.501 366.561,704.448 366.138,705.321L368.043,708.073C369.269,709.676 369.116,711.865 367.666,713.316L364.321,716.66C362.999,717.982 360.967,718.18 359.257,717.156L359.096,717.05L356.472,715.161C355.531,715.645 354.581,716.051 353.628,716.373L353.103,719.528C352.758,721.576 351.183,722.952 349.181,722.952" style="fill:rgb(105,104,117);fill-rule:nonzero;"/>
    </g>
</svg>
