<?xml version="1.0" encoding="UTF-8" standalone="no"?>
<!DOCTYPE svg PUBLIC "-//W3C//DTD SVG 1.1//EN" "http://www.w3.org/Graphics/SVG/1.1/DTD/svg11.dtd">
<svg width="100%" height="100%" viewBox="0 0 411 111" version="1.1" xmlns="http://www.w3.org/2000/svg" xmlns:xlink="http://www.w3.org/1999/xlink" xml:space="preserve" style="fill-rule:evenodd;clip-rule:evenodd;stroke-linejoin:round;stroke-miterlimit:1.41421;">
    <g transform="matrix(4.16667,0,0,4.16667,-1158.31,-1173.73)">
        <path d="M314.897,286.553L314.456,287.794C314.257,288.351 314.031,288.721 313.775,288.901C313.521,289.081 313.147,289.174 312.651,289.174C312.541,289.174 312.409,289.165 312.258,289.159L313.626,285.305C314.327,285.305 314.761,285.384 314.928,285.54C315.094,285.697 315.087,286.035 314.897,286.553ZM318.664,288.254L319.011,287.275C318.597,286.425 318.556,285.328 318.981,284.131C319.04,283.965 319.107,283.802 319.182,283.639C318.89,283.374 318.434,283.167 317.806,283.017C317.092,282.852 316.022,282.769 314.595,282.769L309.303,282.769L303.985,297.715L309.21,297.715L311.354,291.706L312.766,291.706C313.918,291.706 314.892,291.589 315.687,291.354C316.484,291.119 317.095,290.786 317.519,290.352C317.938,289.915 318.317,289.217 318.664,288.254ZM319.966,288.396L316.646,297.715L321.833,297.715L325.214,288.226C324.243,288.739 323.198,289.043 322.188,289.043C321.294,289.043 320.545,288.805 319.966,288.396ZM338.592,285.774L339.665,282.769L329.172,282.769C329.145,283.201 329.055,283.661 328.888,284.131C328.682,284.707 328.378,285.261 328.015,285.774L330.237,285.774L325.987,297.715L331.214,297.715L335.467,285.774L338.592,285.774ZM299.255,292.37L297.447,292.37C298.066,291.053 299.149,288.954 300.69,286.063C300.091,288.583 299.612,290.687 299.255,292.37ZM297.875,282.769L289.882,297.715L295.273,297.715L296.526,295.023L298.452,295.023L297.779,297.715L303.121,297.715L305.436,282.769L297.875,282.769ZM291.321,291.706L286.094,291.706L285.427,293.586C285.133,294.411 284.887,294.932 284.688,295.155C284.481,295.382 284.182,295.491 283.789,295.491C283.379,295.491 283.153,295.383 283.111,295.159C283.074,294.937 283.186,294.464 283.444,293.739L285.906,286.815C286.18,286.055 286.413,285.558 286.61,285.333C286.809,285.107 287.129,284.992 287.563,284.992C287.952,284.992 288.169,285.084 288.214,285.273C288.262,285.463 288.156,285.927 287.888,286.674L286.971,289.247L292.198,289.247L292.7,287.827C293.2,286.44 293.408,285.415 293.322,284.76C293.239,284.104 292.776,283.553 291.929,283.115C291.083,282.675 289.887,282.457 288.342,282.457C287.208,282.457 286.151,282.602 285.168,282.888C284.194,283.174 283.37,283.566 282.699,284.066C282.027,284.564 281.547,285.082 281.257,285.619C280.965,286.156 280.627,286.964 280.244,288.043L278.689,292.409C278.17,293.872 277.939,294.971 278.006,295.699C278.067,296.427 278.524,297.001 279.371,297.412C280.22,297.822 281.415,298.028 282.947,298.028C284.425,298.028 285.756,297.788 286.937,297.295C288.12,296.804 288.973,296.233 289.501,295.587C290.024,294.937 290.563,293.837 291.112,292.287L291.321,291.706ZM324.764,281.794C323.462,281.794 322.03,282.841 321.576,284.131C321.112,285.425 321.798,286.475 323.102,286.475C324.402,286.475 325.834,285.425 326.293,284.131C326.757,282.841 326.068,281.794 324.764,281.794ZM375.392,293.86L375.126,295.196L374.996,296.301L373.896,297.374L373.244,297.07L372.749,297.24L372.021,296.94L370.255,296.375L369.643,296.087L369.69,295.976C369.729,295.954 369.746,295.932 369.744,295.911L369.734,295.922C369.729,295.808 370.128,295.155 370.128,295.155L370.581,294.165L370.466,292.864L370.537,291.98L370.338,290.688L369.563,289.009L369.029,288.258L369.039,288.247L369.167,287.941L373.139,286.629L373.896,286.983L374.798,288.226L375.249,289.789L375.452,291.958L375.392,293.86ZM342.699,292.37L340.895,292.37C341.511,291.053 342.593,288.954 344.143,286.063C343.534,288.583 343.06,290.687 342.699,292.37ZM376.604,290.976L376.089,288.764L375.667,287.563L374.729,285.827L374.46,285.414L373.802,285.037L372.823,285.418L371.03,286.169L369.688,286.801L368.35,287.508L368.339,287.519L367.739,286.917L366.905,286.338L365.528,285.735L364.247,285.341L362.879,285.105L361.666,285.215L359.388,285.789L358.661,286.295L357.704,285.612L357.087,284.867L356.204,283.71L355.512,282.969L355.126,283.006L353.376,284.261L352.444,285.147L351.747,286.014L351.104,287.458L350.351,289.426L350.213,290.459L350.271,291.109L350.39,291.534L350.398,291.759L347.428,292.124L348.88,282.769L341.317,282.769L333.327,297.715L335.637,297.715L335.64,297.761L336.156,300.847L337.871,305.064L339.648,306.934L341.323,308.237L341.979,307.738L343.662,306.527L344.761,305.771L346.236,304.907L348.364,303.543L349.715,302.98L350.657,302.239L351.55,301.792L352.183,301.077L356.622,298.303L357.292,297.747L357.078,297.537L354.05,299.372L347.698,303.021L342.749,305.883L341.866,306.208L341.497,306.386L340.845,306.208L339.981,305.657L338.959,305.03L338.4,304.068L337.768,303.106L337.546,302.397L337.669,302.022L337.378,301.393L337.16,300.755L336.837,299.765L336.635,298.396L336.532,297.715L338.718,297.715L339.972,295.023L341.897,295.023L341.225,297.715L346.567,297.715L347.321,292.851L348.468,292.814L350.223,292.434L350.511,292.407L350.628,292.646L351.045,293.773L351.267,294.482L351.817,294.577L352.722,294.275L354.765,293.649L355.262,294.19L355.342,295.057L355.794,295.746L357.524,297.628L358.947,298.736L359.896,298.87L360.865,299.292L361.718,299.329L362.104,299.251L362.774,299.207L362.716,299.105L362.168,299.078L361.994,299.121L361.785,299.069L361.616,299.001L360.649,298.652L359.694,298.377L359.027,297.927L358.036,297.291L357.356,296.694L356.284,295.19L356.155,294.619L355.764,293.707L355.714,292.326L355.956,290.772L356.753,289.24L357.639,287.92L358.643,286.952L360.106,285.944L361.331,285.757L363.124,285.812L364.799,286.24L366.406,286.821L367.985,287.915L368.987,289.499L369.608,291.194L369.75,292.712L369.663,294.323L369.238,295.583L369.202,295.746L369.146,295.871L368.94,295.775L368.3,296.417L367.598,297.212L366.646,297.881L365.381,298.509L364.575,298.773L366.862,298.199L367.939,297.545L368.905,297.018L369.335,296.687L369.353,296.676L370.563,297.148L372.538,298.351L374.063,298.868L374.768,298.876L375.579,297.563L376.104,295.689L376.574,294.042L376.636,293.016L376.604,290.976" style="fill:rgb(33,141,193);fill-rule:nonzero;"/>
    </g>
</svg>
