<?xml version="1.0" encoding="UTF-8" standalone="no"?>
<!DOCTYPE svg PUBLIC "-//W3C//DTD SVG 1.1//EN" "http://www.w3.org/Graphics/SVG/1.1/DTD/svg11.dtd">
<svg width="100%" height="100%" viewBox="0 0 411 111" version="1.1" xmlns="http://www.w3.org/2000/svg" xmlns:xlink="http://www.w3.org/1999/xlink" xml:space="preserve" style="fill-rule:evenodd;clip-rule:evenodd;stroke-linejoin:round;stroke-miterlimit:1.41421;">
    <g transform="matrix(1,0,0,1,-55.3083,-12.1393)">
        <g transform="matrix(5.70105,0,0,5.70105,-2165.64,-1583.99)">
            <path d="M389.569,289.44C389.569,294.484 392.863,297.617 398.167,297.617C401.96,297.617 404.838,295.947 406.06,293.035L406.124,292.885L403.771,291.975L403.709,292.119C402.861,294.186 400.84,295.371 398.167,295.371C394.51,295.371 392.148,293.153 392.148,289.72C392.148,286.983 394.032,284.041 398.167,284.041C401.594,284.041 403.03,285.989 403.575,287.15L403.647,287.297L405.971,286.114L405.894,285.973C404.528,283.356 401.64,281.794 398.167,281.794C393.187,281.794 389.569,285.01 389.569,289.44" style="fill:rgb(33,141,193);fill-rule:nonzero;"/>
        </g>
        <g transform="matrix(5.70105,0,0,5.70105,-2165.64,-1583.99)">
            <path d="M408.289,289.44C408.289,294.484 411.583,297.617 416.886,297.617C422.17,297.617 425.452,294.484 425.452,289.44C425.452,287.333 424.628,285.407 423.126,284.019C421.555,282.563 419.396,281.794 416.886,281.794C411.903,281.794 408.289,285.01 408.289,289.44M410.87,289.72C410.87,286.983 412.756,284.041 416.886,284.041C421.024,284.041 422.872,286.891 422.872,289.72C422.872,293.208 420.577,295.371 416.886,295.371C413.176,295.371 410.87,293.208 410.87,289.72" style="fill:rgb(33,141,193);fill-rule:nonzero;"/>
        </g>
        <g transform="matrix(5.70105,0,0,5.70105,-2165.64,-1583.99)">
            <path d="M449.877,282.005L447.38,282.005L447.38,297.046L461.661,297.046L461.661,294.549L450.037,294.549L450.037,282.005L449.877,282.005" style="fill:rgb(33,141,193);fill-rule:nonzero;"/>
        </g>
        <g transform="matrix(5.70105,0,0,5.70105,-2165.64,-1583.99)">
            <path d="M428.626,284.922L428.467,285.115L430.431,286.465L430.548,286.334C431.268,285.502 432.61,283.955 436.382,283.955C438.576,283.955 440.916,284.633 440.916,286.534L440.916,286.952C440.679,286.978 439.2,287.139 439.2,287.139C433.785,287.706 427.65,288.351 427.65,293.017C427.65,297.021 431.479,297.617 433.761,297.617C436.304,297.617 438.638,296.93 440.889,295.533L440.889,297.046L443.498,297.046L443.498,286.676C443.498,284.914 442.691,283.602 441.1,282.77C439.558,281.965 437.588,281.794 436.218,281.794C431.154,281.794 429.509,283.828 428.626,284.922M430.116,293.017C430.116,290.379 434.389,289.747 440.916,289.112L440.916,293.23C439.521,293.98 436.729,295.456 433.646,295.456C432.817,295.456 430.116,295.278 430.116,293.017" style="fill:rgb(33,141,193);fill-rule:nonzero;"/>
        </g>
    </g>
</svg>
