<?xml version="1.0" encoding="UTF-8" standalone="no"?>
<!DOCTYPE svg PUBLIC "-//W3C//DTD SVG 1.1//EN" "http://www.w3.org/Graphics/SVG/1.1/DTD/svg11.dtd">
<svg width="100%" height="100%" viewBox="0 0 411 119" version="1.1" xmlns="http://www.w3.org/2000/svg" xmlns:xlink="http://www.w3.org/1999/xlink" xml:space="preserve" style="fill-rule:evenodd;clip-rule:evenodd;stroke-linejoin:round;stroke-miterlimit:1.41421;">
    <g transform="matrix(1.60158,0,0,1.60158,-123.626,-29.5092)">
        <g transform="matrix(4.16667,0,0,4.16667,-1890.63,-1148.61)">
            <path d="M484.143,293.365C484.143,293.916 483.692,294.364 483.144,294.364L479.214,294.364C478.661,294.364 478.213,293.916 478.213,293.365L478.213,287.103L472.276,287.103L472.276,290.295L473.817,291.825L473.817,294.755C473.817,296.482 475.217,297.884 476.948,297.884L485.413,297.884C487.143,297.884 488.542,296.482 488.542,294.755L488.542,291.825L490.075,290.295L490.075,287.103L484.143,287.103L484.143,293.365ZM472.276,280.088L472.276,283.632L478.632,283.633L481.176,286.179L483.724,283.633L490.075,283.633L490.075,280.088L472.276,280.088" style="fill:rgb(33,141,193);fill-rule:nonzero;"/>
        </g>
        <g transform="matrix(4.16667,0,0,4.16667,-1890.63,-1148.61)">
            <path d="M492.646,280.307L495.013,280.307L495.013,290.705C495.013,291.713 495.412,292.21 496.272,292.21C497.132,292.21 497.532,291.713 497.532,290.705L497.532,280.307L499.9,280.307L499.9,290.606C499.9,292.973 498.521,294.269 496.272,294.269C494.021,294.269 492.646,292.973 492.646,290.606L492.646,280.307" style="fill:rgb(33,141,193);fill-rule:nonzero;"/>
        </g>
        <g transform="matrix(4.16667,0,0,4.16667,-1890.63,-1148.61)">
            <path d="M502.322,294.078L502.322,280.307L504.519,280.307L507.397,288.183L507.439,288.183L507.439,280.307L509.575,280.307L509.575,294.078L507.512,294.078L504.498,285.479L504.462,285.479L504.462,294.078L502.322,294.078" style="fill:rgb(33,141,193);fill-rule:nonzero;"/>
        </g>
        <g transform="matrix(4.16667,0,0,4.16667,-1890.63,-1148.61)">
            <rect x="512.056" y="280.307" width="2.365" height="13.771" style="fill:rgb(33,141,193);fill-rule:nonzero;"/>
        </g>
        <g transform="matrix(4.16667,0,0,4.16667,-1890.63,-1148.61)">
            <path d="M516.826,283.646C516.826,281.7 517.964,280.113 520.451,280.113C522.933,280.113 524.079,281.7 524.079,283.646L524.079,290.741C524.079,292.685 522.933,294.269 520.451,294.269C517.964,294.269 516.826,292.685 516.826,290.741L516.826,283.646ZM519.19,290.682C519.19,291.713 519.497,292.21 520.451,292.21C521.407,292.21 521.708,291.713 521.708,290.682L521.708,283.701C521.708,282.672 521.407,282.173 520.451,282.173C519.497,282.173 519.19,282.672 519.19,283.701L519.19,290.682" style="fill:rgb(33,141,193);fill-rule:nonzero;"/>
        </g>
        <g transform="matrix(4.16667,0,0,4.16667,-1890.63,-1148.61)">
            <path d="M526.456,294.078L526.456,280.307L528.651,280.307L531.531,288.183L531.572,288.183L531.572,280.307L533.708,280.307L533.708,294.078L531.649,294.078L528.631,285.479L528.597,285.479L528.597,294.078L526.456,294.078" style="fill:rgb(33,141,193);fill-rule:nonzero;"/>
        </g>
        <g transform="matrix(4.16667,0,0,4.16667,-1890.63,-1148.61)">
            <path d="M492.646,295.507L493.827,295.507C494.118,295.507 494.32,295.579 494.456,295.716C494.55,295.807 494.604,295.929 494.604,296.086L494.604,296.093C494.604,296.36 494.454,296.519 494.249,296.605C494.525,296.7 494.706,296.857 494.706,297.171L494.706,297.176C494.706,297.573 494.386,297.812 493.836,297.812L492.646,297.812L492.646,295.507ZM493.669,296.424C493.862,296.424 493.973,296.36 493.973,296.225L493.973,296.219C493.973,296.093 493.875,296.022 493.68,296.022L493.269,296.022L493.269,296.424L493.669,296.424ZM493.763,297.298C493.957,297.298 494.071,297.223 494.071,297.087L494.071,297.082C494.071,296.955 493.973,296.874 493.755,296.874L493.269,296.874L493.269,297.298L493.763,297.298" style="fill:rgb(33,141,193);fill-rule:nonzero;"/>
        </g>
        <g transform="matrix(4.16667,0,0,4.16667,-1890.63,-1148.61)">
            <rect x="495.605" y="295.507" width="0.641" height="2.305" style="fill:rgb(33,141,193);fill-rule:nonzero;"/>
        </g>
        <g transform="matrix(4.16667,0,0,4.16667,-1890.63,-1148.61)">
            <path d="M497.261,295.507L497.854,295.507L498.804,296.724L498.804,295.507L499.436,295.507L499.436,297.812L498.876,297.812L497.893,296.548L497.893,297.812L497.261,297.812L497.261,295.507" style="fill:rgb(33,141,193);fill-rule:nonzero;"/>
        </g>
        <g transform="matrix(4.16667,0,0,4.16667,-1890.63,-1148.61)">
            <path d="M500.434,295.507L501.325,295.507C502.146,295.507 502.623,295.98 502.623,296.646L502.623,296.652C502.623,297.317 502.14,297.812 501.311,297.812L500.434,297.812L500.434,295.507ZM501.333,297.242C501.717,297.242 501.97,297.034 501.97,296.661L501.97,296.656C501.97,296.289 501.717,296.074 501.333,296.074L501.075,296.074L501.075,297.242L501.333,297.242" style="fill:rgb(33,141,193);fill-rule:nonzero;"/>
        </g>
        <g transform="matrix(4.16667,0,0,4.16667,-1890.63,-1148.61)">
            <rect x="503.559" y="295.507" width="0.642" height="2.305" style="fill:rgb(33,141,193);fill-rule:nonzero;"/>
        </g>
        <g transform="matrix(4.16667,0,0,4.16667,-1890.63,-1148.61)">
            <path d="M505.214,295.507L505.81,295.507L506.758,296.724L506.758,295.507L507.392,295.507L507.392,297.812L506.831,297.812L505.846,296.548L505.846,297.812L505.214,297.812L505.214,295.507" style="fill:rgb(33,141,193);fill-rule:nonzero;"/>
        </g>
        <g transform="matrix(4.16667,0,0,4.16667,-1890.63,-1148.61)">
            <path d="M508.313,296.665L508.313,296.659C508.313,295.989 508.837,295.461 509.555,295.461C509.959,295.461 510.239,295.587 510.488,295.798L510.111,296.248C509.944,296.11 509.782,296.031 509.555,296.031C509.225,296.031 508.964,296.312 508.964,296.661L508.964,296.67C508.964,297.041 509.226,297.307 509.589,297.307C509.743,297.307 509.863,297.274 509.961,297.211L509.961,296.933L509.504,296.933L509.504,296.466L510.566,296.466L510.566,297.503C510.32,297.702 509.984,297.857 509.565,297.857C508.848,297.857 508.313,297.363 508.313,296.665" style="fill:rgb(33,141,193);fill-rule:nonzero;"/>
        </g>
        <g transform="matrix(4.16667,0,0,4.16667,-1890.63,-1148.61)">
            <path d="M512.938,296.665L512.938,296.659C512.938,295.989 513.455,295.461 514.152,295.461C514.622,295.461 514.928,295.66 515.131,295.942L514.65,296.315C514.52,296.15 514.368,296.044 514.148,296.044C513.821,296.044 513.596,296.317 513.596,296.652L513.596,296.659C513.596,297.005 513.821,297.274 514.148,297.274C514.384,297.274 514.526,297.16 514.664,296.994L515.144,297.337C514.931,297.637 514.635,297.857 514.126,297.857C513.468,297.857 512.938,297.354 512.938,296.665" style="fill:rgb(33,141,193);fill-rule:nonzero;"/>
        </g>
        <g transform="matrix(4.16667,0,0,4.16667,-1890.63,-1148.61)">
            <path d="M515.867,296.665L515.867,296.659C515.867,295.997 516.398,295.461 517.108,295.461C517.822,295.461 518.349,295.992 518.349,296.652L518.349,296.659C518.349,297.321 517.815,297.857 517.105,297.857C516.396,297.857 515.867,297.327 515.867,296.665M517.697,296.665L517.697,296.659C517.697,296.326 517.453,296.039 517.105,296.039C516.758,296.039 516.519,296.318 516.519,296.652L516.519,296.659C516.519,296.991 516.762,297.281 517.108,297.281C517.463,297.281 517.697,296.999 517.697,296.665" style="fill:rgb(33,141,193);fill-rule:nonzero;"/>
        </g>
        <g transform="matrix(4.16667,0,0,4.16667,-1890.63,-1148.61)">
            <path d="M519.27,295.507L519.946,295.507L520.496,296.397L521.045,295.507L521.718,295.507L521.718,297.812L521.089,297.812L521.089,296.488L520.496,297.39L520.486,297.39L519.897,296.496L519.897,297.812L519.27,297.812L519.27,295.507" style="fill:rgb(33,141,193);fill-rule:nonzero;"/>
        </g>
        <g transform="matrix(4.16667,0,0,4.16667,-1890.63,-1148.61)">
            <path d="M522.717,295.507L523.708,295.507C524.292,295.507 524.665,295.807 524.665,296.317L524.665,296.324C524.665,296.868 524.249,297.153 523.674,297.153L523.358,297.153L523.358,297.812L522.717,297.812L522.717,295.507ZM523.663,296.652C523.889,296.652 524.027,296.533 524.027,296.354L524.027,296.347C524.027,296.15 523.889,296.044 523.658,296.044L523.358,296.044L523.358,296.652L523.663,296.652" style="fill:rgb(33,141,193);fill-rule:nonzero;"/>
        </g>
        <g transform="matrix(4.16667,0,0,4.16667,-1890.63,-1148.61)">
            <path d="M526.095,295.491L526.709,295.491L527.689,297.812L527.005,297.812L526.838,297.4L525.948,297.4L525.785,297.812L525.114,297.812L526.095,295.491ZM526.653,296.903L526.397,296.25L526.134,296.903L526.653,296.903" style="fill:rgb(33,141,193);fill-rule:nonzero;"/>
        </g>
        <g transform="matrix(4.16667,0,0,4.16667,-1890.63,-1148.61)">
            <path d="M528.509,295.507L529.102,295.507L530.051,296.724L530.051,295.507L530.683,295.507L530.683,297.812L530.124,297.812L529.138,296.548L529.138,297.812L528.509,297.812L528.509,295.507" style="fill:rgb(33,141,193);fill-rule:nonzero;"/>
        </g>
        <g transform="matrix(4.16667,0,0,4.16667,-1890.63,-1148.61)">
            <path d="M532.349,296.949L531.473,295.507L532.199,295.507L532.674,296.347L533.153,295.507L533.865,295.507L532.991,296.938L532.991,297.812L532.349,297.812L532.349,296.949" style="fill:rgb(33,141,193);fill-rule:nonzero;"/>
        </g>
    </g>
</svg>
