<?xml version="1.0" encoding="UTF-8" standalone="no"?>
<!DOCTYPE svg PUBLIC "-//W3C//DTD SVG 1.1//EN" "http://www.w3.org/Graphics/SVG/1.1/DTD/svg11.dtd">
<svg width="100%" height="100%" viewBox="0 0 100 66" version="1.1" xmlns="http://www.w3.org/2000/svg" xmlns:xlink="http://www.w3.org/1999/xlink" xml:space="preserve" style="fill-rule:evenodd;clip-rule:evenodd;stroke-linejoin:round;stroke-miterlimit:1.41421;">
    <g transform="matrix(2.13989,0,0,2.13989,-84.8938,-195.391)">
        <path d="M79.964,106.399C80.599,105.812 85.679,101.115 85.679,101.115L83.467,91.309L54.605,91.512C46.318,91.621 39.62,98.45 39.672,106.736C39.723,114.977 46.469,121.72 54.712,121.77C54.732,121.77 54.796,121.772 54.796,121.772L62.229,121.723L62.215,119.369L54.782,119.417C47.796,119.403 42.074,113.709 42.029,106.721C41.985,99.732 47.637,93.966 54.625,93.871C54.625,93.873 78.559,93.725 81.591,93.706C81.715,94.252 82.995,99.912 83.084,100.309C82.766,100.603 75.975,106.881 75.975,106.881L76.516,107.127C79.308,108.382 83.996,111.743 84.048,120.145L83.961,121.504L84.381,121.516L86.321,121.503L86.403,120.147C86.354,112.572 82.97,108.515 79.964,106.399" style="fill:rgb(224,220,206);fill-rule:nonzero;"/>
    </g>
    <g transform="matrix(2.13989,0,0,2.13989,-84.8938,-195.391)">
        <path d="M63.666,100.012L54.652,100.056C51.14,100.14 48.407,102.932 48.431,106.416C48.452,109.868 51.279,112.707 54.735,112.743L62.227,112.697L62.212,110.338L54.726,110.385C52.573,110.35 50.803,108.563 50.789,106.402C50.776,104.239 52.522,102.43 54.683,102.367L63.555,102.318C63.555,102.318 67.595,102.293 68.962,102.285C67.898,103.374 62.475,108.927 62.475,108.927L65.55,108.908C68.82,108.919 71.5,111.591 71.52,114.862C71.541,118.03 69.078,120.673 65.914,120.876L65.941,121.66L70.728,121.631L70.832,121.546C72.887,119.902 74.056,117.46 74.041,114.845C74.016,111.024 71.388,107.719 67.719,106.698C68.513,105.889 74.3,99.968 74.3,99.968L63.666,100.012Z" style="fill:rgb(224,220,206);fill-rule:nonzero;"/>
    </g>
</svg>
