<?xml version="1.0" encoding="UTF-8" standalone="no"?>
<!DOCTYPE svg PUBLIC "-//W3C//DTD SVG 1.1//EN" "http://www.w3.org/Graphics/SVG/1.1/DTD/svg11.dtd">
<svg width="100%" height="100%" viewBox="0 0 165 45" version="1.1" xmlns="http://www.w3.org/2000/svg" xmlns:xlink="http://www.w3.org/1999/xlink" xml:space="preserve" style="fill-rule:evenodd;clip-rule:evenodd;stroke-linejoin:round;stroke-miterlimit:1.41421;">
    <g transform="matrix(1,0,0,1,-40.6328,0)">
        <g transform="matrix(1,0,0,1,0,-281.141)">
            <path d="M203.442,301.308L202.998,303.545L202.776,305.392L200.939,307.185L199.853,306.677L199.022,306.957L197.805,306.459L194.858,305.513L193.832,305.032L193.911,304.845C193.972,304.809 194.008,304.773 194.007,304.738L193.984,304.754C193.974,304.567 194.645,303.475 194.645,303.475L195.403,301.821L195.204,299.645L195.327,298.17L194.998,296.007L193.699,293.202L192.803,291.943L192.826,291.928L193.038,291.419L199.672,289.221L200.944,289.817L202.444,291.894L203.205,294.506L203.54,298.13L203.442,301.308ZM148.803,298.818L145.78,298.818C146.812,296.619 148.622,293.109 151.204,288.279C150.197,292.49 149.397,296.003 148.803,298.818M205.468,296.491L204.607,292.792L203.901,290.785L202.335,287.882L201.883,287.194L200.784,286.563L199.152,287.201L196.148,288.452L193.906,289.512L191.673,290.692L191.65,290.709L190.65,289.705L189.258,288.736L186.955,287.729L184.817,287.073L182.526,286.674L180.503,286.86L176.695,287.82L175.472,288.663L173.872,287.524L172.846,286.278L171.369,284.342L170.213,283.107L169.57,283.168L166.643,285.265L165.088,286.749L163.922,288.198L162.845,290.611L161.587,293.895L161.355,295.625L161.455,296.712L161.651,297.424L161.672,297.8L156.707,298.409L159.125,282.771L146.486,282.771L133.133,307.754L136.992,307.754L136.999,307.827L137.864,312.988L140.723,320.037L143.7,323.161L146.501,325.339L147.593,324.508L150.409,322.484L152.243,321.217L154.71,319.773L158.27,317.496L160.523,316.555L162.1,315.315L163.591,314.567L164.65,313.371L172.064,308.733L173.191,307.806L172.83,307.455L167.769,310.524L157.15,316.623L148.878,321.405L147.406,321.947L146.784,322.246L145.698,321.947L144.253,321.029L142.546,319.978L141.609,318.373L140.552,316.764L140.182,315.58L140.384,314.952L139.899,313.898L139.54,312.834L138.996,311.178L138.656,308.894L138.484,307.754L142.142,307.754L144.239,303.256L147.455,303.256L146.331,307.754L155.261,307.754L156.519,299.619L158.441,299.562L161.37,298.926L161.856,298.882L162.053,299.28L162.746,301.166L163.115,302.35L164.041,302.509L165.554,302.006L168.967,300.96L169.796,301.863L169.927,303.311L170.684,304.461L173.574,307.606L175.955,309.459L177.537,309.68L179.161,310.388L180.584,310.453L181.23,310.32L182.348,310.248L182.258,310.078L181.339,310.034L181.048,310.103L180.7,310.017L180.417,309.903L178.802,309.321L177.2,308.859L176.092,308.108L174.433,307.043L173.302,306.049L171.509,303.533L171.293,302.577L170.63,301.054L170.549,298.746L170.959,296.149L172.284,293.589L173.771,291.381L175.443,289.764L177.887,288.076L179.939,287.766L182.937,287.855L185.734,288.572L188.425,289.544L191.062,291.372L192.735,294.021L193.776,296.851L194.009,299.39L193.868,302.083L193.153,304.191L193.098,304.462L193.003,304.671L192.661,304.511L191.59,305.583L190.413,306.912L188.825,308.032L186.711,309.08L185.362,309.523L189.185,308.561L190.983,307.468L192.593,306.588L193.321,306.033L193.345,306.017L195.368,306.806L198.672,308.818L201.221,309.679L202.395,309.694L203.753,307.496L204.634,304.368L205.418,301.614L205.523,299.898L205.468,296.491Z" style="fill:black;fill-rule:nonzero;"/>
        </g>
        <g transform="matrix(1,0,0,1,0,-281.141)">
            <path d="M118.82,281.142C116.644,281.142 114.251,282.892 113.487,285.051C112.717,287.213 113.86,288.964 116.039,288.964C118.217,288.964 120.606,287.213 121.376,285.051C122.147,282.892 121.004,281.142 118.82,281.142" style="fill:black;fill-rule:nonzero;"/>
        </g>
        <g transform="matrix(1,0,0,1,0,-281.141)">
            <path d="M62.921,297.711L54.183,297.711L53.067,300.854C52.577,302.229 52.162,303.102 51.827,303.475C51.487,303.852 50.989,304.038 50.331,304.038C49.644,304.038 49.264,303.854 49.202,303.479C49.138,303.109 49.321,302.319 49.755,301.107L53.872,289.534C54.324,288.262 54.717,287.434 55.05,287.057C55.381,286.68 55.912,286.49 56.641,286.49C57.289,286.49 57.652,286.643 57.729,286.956C57.805,287.272 57.626,288.049 57.18,289.298L55.646,293.602L64.385,293.602L65.229,291.226C66.057,288.907 66.4,287.197 66.265,286.1C66.128,285.002 65.355,284.082 63.939,283.35C62.521,282.615 60.521,282.249 57.943,282.249C56.042,282.249 54.275,282.49 52.639,282.97C51.008,283.45 49.63,284.104 48.507,284.94C47.387,285.774 46.583,286.638 46.096,287.534C45.613,288.429 45.045,289.782 44.406,291.585L41.808,298.883C40.936,301.33 40.552,303.167 40.661,304.383C40.766,305.604 41.532,306.558 42.947,307.245C44.367,307.933 46.36,308.276 48.924,308.276C51.394,308.276 53.617,307.873 55.592,307.053C57.571,306.232 58.997,305.278 59.874,304.194C60.753,303.109 61.653,301.272 62.575,298.68L62.921,297.711Z" style="fill:black;fill-rule:nonzero;"/>
        </g>
        <g transform="matrix(1,0,0,1,0,-281.141)">
            <path d="M76.184,298.819L73.162,298.819C74.198,296.62 76.006,293.109 78.588,288.28C77.58,292.491 76.778,296.004 76.184,298.819M73.871,282.772L60.518,307.755L69.524,307.755L71.617,303.256L74.843,303.256L73.715,307.755L82.646,307.755L86.511,282.772L73.871,282.772Z" style="fill:black;fill-rule:nonzero;"/>
        </g>
        <g transform="matrix(1,0,0,1,0,-281.141)">
            <path d="M141.933,287.794L143.725,282.771L126.191,282.771C126.143,283.494 125.993,284.259 125.713,285.051C125.365,286.013 124.86,286.936 124.253,287.794L127.967,287.794L120.862,307.754L129.601,307.754L136.705,287.794L141.933,287.794Z" style="fill:black;fill-rule:nonzero;"/>
        </g>
        <g transform="matrix(1,0,0,1,0,-281.141)">
            <path d="M110.802,292.175L105.253,307.754L113.919,307.754L119.571,291.892C117.951,292.751 116.204,293.258 114.511,293.258C113.023,293.258 111.77,292.858 110.802,292.175" style="fill:black;fill-rule:nonzero;"/>
        </g>
        <g transform="matrix(1,0,0,1,0,-281.141)">
            <path d="M102.332,289.098L101.592,291.173C101.262,292.102 100.882,292.72 100.449,293.022C100.022,293.32 99.401,293.475 98.574,293.475C98.386,293.475 98.169,293.464 97.914,293.452L100.203,287.01C101.376,287.01 102.099,287.143 102.378,287.405C102.654,287.665 102.641,288.232 102.332,289.098M109.153,285.051C109.249,284.771 109.365,284.497 109.486,284.226C109.006,283.784 108.239,283.436 107.186,283.186C105.994,282.91 104.208,282.771 101.819,282.771L92.98,282.771L84.087,307.754L92.819,307.754L96.401,297.711L98.762,297.711C100.69,297.711 102.32,297.516 103.65,297.12C104.981,296.729 105.999,296.172 106.707,295.445C107.414,294.717 108.047,293.548 108.621,291.942L109.204,290.303C108.51,288.883 108.441,287.05 109.153,285.051" style="fill:black;fill-rule:nonzero;"/>
        </g>
    </g>
</svg>
