<?xml version="1.0" encoding="UTF-8" standalone="no"?>
<!DOCTYPE svg PUBLIC "-//W3C//DTD SVG 1.1//EN" "http://www.w3.org/Graphics/SVG/1.1/DTD/svg11.dtd">
<svg width="100%" height="100%" viewBox="0 0 143 54" version="1.1" xmlns="http://www.w3.org/2000/svg" xmlns:xlink="http://www.w3.org/1999/xlink" xml:space="preserve" style="fill-rule:evenodd;clip-rule:evenodd;stroke-linejoin:round;stroke-miterlimit:1.41421;">
    <g transform="matrix(1,0,0,1,-39.913,-1093)">
        <path d="M99.522,1103.23L103.707,1103.23L103.707,1121.62C103.707,1123.41 104.415,1124.29 105.935,1124.29C107.455,1124.29 108.163,1123.41 108.163,1121.62L108.163,1103.23L112.347,1103.23L112.347,1121.45C112.347,1125.64 109.92,1127.93 105.935,1127.93C101.952,1127.93 99.522,1125.64 99.522,1121.45L99.522,1103.23Z" style="fill:white;fill-rule:nonzero;"/>
        <path d="M116.634,1127.6L116.634,1103.23L120.514,1103.23L125.61,1117.17L125.678,1117.17L125.678,1103.23L129.456,1103.23L129.456,1127.6L125.813,1127.6L120.481,1112.38L120.414,1112.38L120.414,1127.6L116.634,1127.6Z" style="fill:white;fill-rule:nonzero;"/>
        <rect x="133.845" y="1103.23" width="4.186" height="24.366" style="fill:white;fill-rule:nonzero;"/>
        <path d="M146.461,1121.59C146.461,1123.41 147.001,1124.29 148.687,1124.29C150.374,1124.29 150.916,1123.41 150.916,1121.59L150.916,1109.24C150.916,1107.41 150.374,1106.54 148.687,1106.54C147.001,1106.54 146.461,1107.41 146.461,1109.24L146.461,1121.59ZM142.273,1109.14C142.273,1105.7 144.299,1102.89 148.687,1102.89C153.076,1102.89 155.102,1105.7 155.102,1109.14L155.102,1121.69C155.102,1125.13 153.076,1127.93 148.687,1127.93C144.299,1127.93 142.273,1125.13 142.273,1121.69L142.273,1109.14Z" style="fill:white;fill-rule:nonzero;"/>
        <path d="M159.307,1127.6L159.307,1103.23L163.188,1103.23L168.284,1117.17L168.351,1117.17L168.351,1103.23L172.131,1103.23L172.131,1127.6L168.486,1127.6L163.154,1112.38L163.085,1112.38L163.085,1127.6L159.307,1127.6Z" style="fill:white;fill-rule:nonzero;"/>
        <path d="M101.824,1135.46C102.162,1135.46 102.357,1135.33 102.357,1135.09L102.357,1135.08C102.357,1134.86 102.186,1134.72 101.812,1134.72L100.962,1134.72L100.962,1135.46L101.824,1135.46ZM101.662,1133.94C102.001,1133.94 102.191,1133.82 102.191,1133.59L102.191,1133.58C102.191,1133.36 102.019,1133.23 101.685,1133.23L100.962,1133.23L100.962,1133.94L101.662,1133.94ZM99.877,1132.34L101.939,1132.34C102.444,1132.34 102.8,1132.46 103.034,1132.7C103.196,1132.86 103.293,1133.07 103.293,1133.35L103.293,1133.36C103.293,1133.82 103.029,1134.1 102.673,1134.26C103.161,1134.42 103.471,1134.69 103.471,1135.24L103.471,1135.25C103.471,1135.93 102.909,1136.36 101.95,1136.36L99.877,1136.36L99.877,1132.34Z" style="fill:white;fill-rule:nonzero;"/>
        <rect x="105.038" y="1132.34" width="1.119" height="4.018" style="fill:white;fill-rule:nonzero;"/>
        <path d="M107.926,1132.34L108.965,1132.34L110.619,1134.46L110.619,1132.34L111.721,1132.34L111.721,1136.36L110.745,1136.36L109.028,1134.15L109.028,1136.36L107.926,1136.36L107.926,1132.34Z" style="fill:white;fill-rule:nonzero;"/>
        <path d="M115.033,1135.37C115.699,1135.37 116.141,1135 116.141,1134.35L116.141,1134.34C116.141,1133.7 115.699,1133.32 115.033,1133.32L114.578,1133.32L114.578,1135.37L115.033,1135.37ZM113.466,1132.34L115.015,1132.34C116.451,1132.34 117.281,1133.16 117.281,1134.32L117.281,1134.34C117.281,1135.49 116.44,1136.36 114.991,1136.36L113.466,1136.36L113.466,1132.34Z" style="fill:white;fill-rule:nonzero;"/>
        <rect x="118.913" y="1132.34" width="1.119" height="4.018" style="fill:white;fill-rule:nonzero;"/>
        <path d="M121.801,1132.34L122.84,1132.34L124.493,1134.46L124.493,1132.34L125.594,1132.34L125.594,1136.36L124.619,1136.36L122.903,1134.15L122.903,1136.36L121.801,1136.36L121.801,1132.34Z" style="fill:white;fill-rule:nonzero;"/>
        <path d="M127.202,1134.36L127.202,1134.35C127.202,1133.17 128.12,1132.26 129.367,1132.26C130.074,1132.26 130.571,1132.47 130.997,1132.84L130.342,1133.63C130.056,1133.39 129.769,1133.25 129.372,1133.25C128.792,1133.25 128.345,1133.74 128.345,1134.35L128.345,1134.36C128.345,1135.01 128.798,1135.48 129.436,1135.48C129.706,1135.48 129.912,1135.42 130.078,1135.31L130.078,1134.82L129.285,1134.82L129.285,1134.01L131.135,1134.01L131.135,1135.82C130.71,1136.17 130.119,1136.43 129.39,1136.43C128.138,1136.43 127.202,1135.58 127.202,1134.36" style="fill:white;fill-rule:nonzero;"/>
        <path d="M135.274,1134.36L135.274,1134.35C135.274,1133.17 136.175,1132.26 137.392,1132.26C138.213,1132.26 138.742,1132.6 139.097,1133.09L138.258,1133.74C138.029,1133.46 137.765,1133.27 137.38,1133.27C136.818,1133.27 136.422,1133.75 136.422,1134.34L136.422,1134.35C136.422,1134.95 136.818,1135.42 137.38,1135.42C137.8,1135.42 138.046,1135.23 138.289,1134.93L139.126,1135.53C138.746,1136.05 138.236,1136.43 137.346,1136.43C136.198,1136.43 135.274,1135.56 135.274,1134.36" style="fill:white;fill-rule:nonzero;"/>
        <path d="M143.574,1134.36L143.574,1134.35C143.574,1133.77 143.157,1133.26 142.542,1133.26C141.933,1133.26 141.525,1133.75 141.525,1134.34L141.525,1134.35C141.525,1134.93 141.944,1135.43 142.552,1135.43C143.168,1135.43 143.574,1134.94 143.574,1134.36M140.384,1134.36L140.384,1134.35C140.384,1133.19 141.313,1132.26 142.552,1132.26C143.793,1132.26 144.712,1133.18 144.712,1134.34L144.712,1134.35C144.712,1135.5 143.781,1136.43 142.542,1136.43C141.302,1136.43 140.384,1135.51 140.384,1134.36" style="fill:white;fill-rule:nonzero;"/>
        <path d="M146.324,1132.34L147.501,1132.34L148.46,1133.89L149.419,1132.34L150.595,1132.34L150.595,1136.36L149.486,1136.36L149.486,1134.05L148.46,1135.62L148.436,1135.62L147.414,1134.06L147.414,1136.36L146.324,1136.36L146.324,1132.34Z" style="fill:white;fill-rule:nonzero;"/>
        <path d="M153.982,1134.34C154.377,1134.34 154.62,1134.13 154.62,1133.81L154.62,1133.8C154.62,1133.46 154.377,1133.27 153.976,1133.27L153.453,1133.27L153.453,1134.34L153.982,1134.34ZM152.339,1132.34L154.062,1132.34C155.079,1132.34 155.733,1132.86 155.733,1133.75L155.733,1133.76C155.733,1134.71 155.004,1135.21 154.004,1135.21L153.453,1135.21L153.453,1136.36L152.339,1136.36L152.339,1132.34Z" style="fill:white;fill-rule:nonzero;"/>
        <path d="M159.2,1134.77L158.752,1133.63L158.299,1134.77L159.2,1134.77ZM158.223,1132.31L159.298,1132.31L161.008,1136.36L159.814,1136.36L159.52,1135.64L157.971,1135.64L157.684,1136.36L156.513,1136.36L158.223,1132.31Z" style="fill:white;fill-rule:nonzero;"/>
        <path d="M162.433,1132.34L163.47,1132.34L165.125,1134.46L165.125,1132.34L166.228,1132.34L166.228,1136.36L165.251,1136.36L163.534,1134.15L163.534,1136.36L162.433,1136.36L162.433,1132.34Z" style="fill:white;fill-rule:nonzero;"/>
        <path d="M169.13,1134.85L167.603,1132.34L168.872,1132.34L169.699,1133.8L170.531,1132.34L171.777,1132.34L170.25,1134.83L170.25,1136.36L169.13,1136.36L169.13,1134.85Z" style="fill:white;fill-rule:nonzero;"/>
        <path d="M93.534,1097.36L177.962,1097.36L177.962,1142.33L93.534,1142.33L93.534,1097.36ZM44.265,1097.36L89.172,1097.36L89.172,1142.33L44.265,1142.33L44.265,1097.36ZM39.902,1146.69L182.324,1146.69L182.324,1093L39.902,1093L39.902,1146.69Z" style="fill:white;fill-rule:nonzero;"/>
        <path d="M50.043,1103.3L50.043,1109.89L61.847,1109.89L66.581,1114.63L71.317,1109.89L83.122,1109.89L83.122,1103.3L50.043,1103.3ZM72.09,1127.98C72.09,1129.01 71.259,1129.84 70.234,1129.84L62.929,1129.84C61.905,1129.84 61.074,1129.01 61.074,1127.98L61.074,1116.34L50.043,1116.34L50.043,1122.28L52.895,1125.12L52.895,1130.56C52.895,1133.78 55.501,1136.38 58.714,1136.38L74.449,1136.38C77.663,1136.38 80.269,1133.78 80.269,1130.56L80.269,1125.12L83.122,1122.28L83.122,1116.34L72.09,1116.34L72.09,1127.98Z" style="fill:white;fill-rule:nonzero;"/>
    </g>
</svg>
